<svg xmlns="http://www.w3.org/2000/svg" xmlns:xlink="http://www.w3.org/1999/xlink" width="500" zoomAndPan="magnify" viewBox="0 0 375 374.999991" height="500" preserveAspectRatio="xMidYMid meet" version="1.0"><defs><g/><clipPath id="c6d71ebc2e"><path d="M 127.871094 146.125 L 175.121094 146.125 L 175.121094 205 L 127.871094 205 Z M 127.871094 146.125 " clip-rule="nonzero"/></clipPath><clipPath id="5f851d016c"><path d="M 138 212 L 165 212 L 165 228.625 L 138 228.625 Z M 138 212 " clip-rule="nonzero"/></clipPath></defs><g fill="#ffffff" fill-opacity="1"><g transform="translate(72.064453, 206.271262)"><g><path d="M 50.550781 -64.949219 C 52.117188 -64.265625 53 -62.601562 53 -61.03125 C 53 -60.25 52.804688 -59.367188 52.410156 -58.679688 L 36.050781 -31.347656 L 24.097656 -57.996094 C 23.804688 -58.679688 23.707031 -59.367188 23.707031 -60.050781 C 23.707031 -62.109375 24.882812 -64.070312 26.84375 -64.949219 L 0.980469 -64.949219 C 4.410156 -63.578125 7.152344 -60.933594 8.71875 -57.503906 L 22.824219 -25.863281 L 22.824219 11.363281 C 22.824219 14.988281 20.574219 18.320312 17.144531 19.59375 L 43.007812 19.59375 L 42.910156 19.496094 C 39.382812 18.320312 37.03125 14.988281 37.03125 11.265625 L 37.03125 -28.996094 L 54.175781 -57.503906 C 56.230469 -60.933594 59.464844 -63.578125 63.1875 -64.949219 Z M 50.550781 -64.949219 "/></g></g></g><g fill="#ffffff" fill-opacity="1"><g transform="translate(135.24023, 206.271262)"><g/></g></g><g fill="#ffffff" fill-opacity="1"><g transform="translate(159.827425, 206.271262)"><g/></g></g><g fill="#ffffff" fill-opacity="1"><g transform="translate(184.412102, 206.271262)"><g><path d="M 18.613281 17.535156 L 54.273438 -44.183594 L 5.09375 -44.183594 L 0.980469 -26.15625 C 4.507812 -35.660156 13.519531 -42.027344 23.707031 -42.027344 L 36.539062 -42.027344 L 0.980469 19.691406 L 50.15625 19.691406 L 54.273438 1.664062 C 50.746094 11.167969 41.636719 17.535156 31.542969 17.535156 Z M 18.613281 17.535156 "/></g></g></g><g fill="#ffffff" fill-opacity="1"><g transform="translate(239.659825, 206.271262)"><g><path d="M 8.230469 -64.949219 C 4.210938 -64.949219 0.980469 -61.816406 0.980469 -57.800781 C 0.980469 -53.878906 4.210938 -50.648438 8.230469 -50.648438 L 8.230469 -50.257812 C 8.230469 -49.375 7.933594 -47.21875 5.484375 -44.964844 C 5.484375 -44.964844 15.378906 -46.140625 15.378906 -57.800781 C 15.378906 -61.816406 12.148438 -64.949219 8.230469 -64.949219 Z M 8.230469 -64.949219 "/></g></g></g><g fill="#ffffff" fill-opacity="1"><g transform="translate(255.03907, 206.271262)"><g><path d="M 39.1875 -7.835938 L 18.90625 -28.507812 C 17.242188 -30.171875 16.457031 -32.230469 16.457031 -34.289062 C 16.457031 -37.128906 17.925781 -39.773438 20.769531 -41.144531 C 21.847656 -41.734375 23.023438 -42.027344 24.199219 -42.027344 C 34.09375 -41.832031 42.8125 -35.5625 46.238281 -26.15625 L 42.710938 -42.027344 L 42.222656 -44.183594 L 20.574219 -44.183594 C 10.582031 -44.183594 5.289062 -39.96875 3.234375 -34.875 C 2.644531 -33.40625 2.351562 -31.742188 2.351562 -30.171875 C 2.351562 -26.15625 4.113281 -22.238281 6.171875 -20.179688 L 9.601562 -16.753906 L 29.878906 3.917969 C 31.445312 5.484375 32.328125 7.640625 32.328125 9.699219 C 32.328125 12.441406 30.761719 15.28125 27.921875 16.652344 C 26.941406 17.144531 25.863281 17.339844 24.6875 17.4375 C 14.890625 17.046875 6.269531 10.875 2.9375 1.566406 L 6.5625 17.535156 L 7.054688 19.59375 L 30.761719 19.59375 C 40.363281 19.59375 45.457031 14.890625 46.730469 9.308594 C 47.023438 8.230469 47.121094 7.152344 47.121094 6.074219 C 47.121094 2.253906 45.457031 -1.566406 42.515625 -4.410156 Z M 39.1875 -7.835938 "/></g></g></g><g clip-path="url(#c6d71ebc2e)"><path fill="#ffffff" d="M 161.988281 204.242188 L 151.496094 204.242188 C 150.953125 204.242188 150.515625 203.804688 150.515625 203.265625 L 150.515625 181.695312 C 147.152344 181.222656 144.558594 178.34375 144.558594 174.875 C 144.558594 171.410156 147.152344 168.53125 150.515625 168.058594 L 150.515625 146.152344 L 128.140625 174.597656 C 127.917969 174.875 127.871094 175.253906 128.011719 175.578125 L 140.101562 203.648438 C 140.257812 204.007812 140.613281 204.242188 141.003906 204.242188 L 151.496094 204.242188 C 152.039062 204.242188 152.476562 203.804688 152.476562 203.265625 L 152.476562 181.695312 C 155.839844 181.222656 158.433594 178.34375 158.433594 174.878906 C 158.433594 171.410156 155.839844 168.53125 152.476562 168.058594 L 152.476562 146.152344 L 174.851562 174.597656 C 175.070312 174.875 175.121094 175.253906 174.980469 175.578125 L 162.890625 203.648438 C 162.734375 204.007812 162.378906 204.242188 161.988281 204.242188 Z M 161.988281 204.242188 " fill-opacity="1" fill-rule="evenodd"/></g><path fill="#ffffff" d="M 161.988281 209.316406 L 141.003906 209.316406 C 140.464844 209.316406 140.023438 208.878906 140.023438 208.34375 L 140.023438 203.265625 C 140.023438 202.730469 140.464844 202.292969 141.003906 202.292969 L 161.988281 202.292969 C 162.527344 202.292969 162.96875 202.730469 162.96875 203.265625 L 162.96875 208.34375 C 162.96875 208.878906 162.527344 209.316406 161.988281 209.316406 Z M 161.988281 209.316406 " fill-opacity="1" fill-rule="evenodd"/><path fill="#ffffff" d="M 163.898438 214.523438 L 139.09375 214.523438 C 134.351562 214.523438 134.351562 207.367188 139.09375 207.367188 L 163.898438 207.367188 C 168.640625 207.367188 168.640625 214.523438 163.898438 214.523438 Z M 163.898438 214.523438 " fill-opacity="1" fill-rule="evenodd"/><g clip-path="url(#5f851d016c)"><path fill="#ffffff" d="M 161.347656 228.601562 L 141.289062 228.601562 C 139.804688 228.601562 138.601562 227.40625 138.601562 225.933594 L 138.601562 213.550781 C 138.601562 213.015625 139.039062 212.578125 139.582031 212.578125 L 163.054688 212.578125 C 163.59375 212.578125 164.035156 213.015625 164.035156 213.550781 L 164.035156 218.769531 L 151.316406 218.769531 C 150.027344 218.769531 150.027344 220.714844 151.316406 220.714844 L 164.035156 220.714844 L 164.035156 225.933594 C 164.035156 227.40625 162.828125 228.601562 161.347656 228.601562 Z M 161.347656 228.601562 " fill-opacity="1" fill-rule="evenodd"/></g><path fill="#ffffff" d="M 151.496094 169.589844 C 148.558594 169.589844 146.167969 171.960938 146.167969 174.878906 C 146.167969 177.792969 148.558594 180.167969 151.496094 180.167969 C 154.433594 180.167969 156.824219 177.792969 156.824219 174.878906 C 156.824219 171.960938 154.433594 169.589844 151.496094 169.589844 Z M 151.496094 169.589844 " fill-opacity="1" fill-rule="evenodd"/></svg>